<?xml version="1.0" encoding="UTF-8" standalone="no"?>
<!DOCTYPE svg PUBLIC "-//W3C//DTD SVG 1.1//EN" "http://www.w3.org/Graphics/SVG/1.1/DTD/svg11.dtd">
<!-- Created with Vectornator (http://vectornator.io/) -->
<svg height="48.0pt" stroke-miterlimit="10" style="fill-rule:nonzero;clip-rule:evenodd;stroke-linecap:round;stroke-linejoin:round;" version="1.1" viewBox="0 0 48 48" width="48.0pt" xml:space="preserve" xmlns="http://www.w3.org/2000/svg" xmlns:xlink="http://www.w3.org/1999/xlink">
<defs/>
<g id="Layer-1">
<g opacity="1">
<path d="M18.057 17.0693L19.3589 17.5152L14.4749 32.7299C14.4053 32.9314 14.3498 33.1226 14.3083 33.3035C14.2668 33.4844 14.246 33.6932 14.246 33.9299L14.246 34.5196C14.246 34.7309 14.19 34.8937 14.078 35.008C13.9659 35.1223 13.8137 35.1794 13.6212 35.1794L10.8648 35.1794C10.6573 35.1794 10.4959 35.1223 10.3805 35.008C10.2652 34.8937 10.2075 34.7309 10.2075 34.5196L10.2075 33.9299C10.2075 33.7481 10.1906 33.5902 10.1567 33.4563C10.1228 33.3224 10.0647 33.1198 9.98214 32.8484L4.48777 15.0093C4.40426 14.7378 4.3012 14.5406 4.17859 14.4177C4.05598 14.2947 3.88904 14.1989 3.67776 14.1302L2.9239 13.9271C2.71745 13.8615 2.57583 13.7802 2.49906 13.6831C2.42228 13.5861 2.3839 13.4732 2.3839 13.3444C2.3839 13.18 2.44541 13.0516 2.56843 12.9592C2.69146 12.8668 2.88198 12.8206 3.14 12.8206L9.79848 12.8206C10.0555 12.8206 10.2454 12.8683 10.3682 12.9636C10.491 13.0589 10.5523 13.1918 10.5523 13.3621C10.5523 13.6388 10.3723 13.8173 10.0121 13.8979L8.7589 14.086C8.50121 14.1366 8.35094 14.2496 8.3081 14.4249C8.26527 14.6002 8.30024 14.8791 8.41304 15.2616L13.835 33.0683L12.5981 34.018L18.057 17.0693ZM28.0988 13.3691C28.0988 13.1944 28.1628 13.0593 28.291 12.9638C28.4192 12.8683 28.6069 12.8206 28.8541 12.8206L33.7491 12.8206C34.0186 12.8206 34.2119 12.8698 34.3289 12.9682C34.4459 13.0666 34.5044 13.1972 34.5044 13.3601C34.5044 13.4875 34.4659 13.5921 34.3889 13.6737C34.3119 13.7553 34.1562 13.8388 33.9218 13.9243L33.2647 14.1392C32.9591 14.2588 32.7038 14.4458 32.4988 14.7001C32.2937 14.9545 32.1125 15.355 31.9551 15.9017L26.9564 32.7299C26.8848 32.9941 26.8288 33.2088 26.7884 33.374C26.748 33.5392 26.7278 33.7245 26.7278 33.9299L26.7278 34.5196C26.7278 34.7309 26.6732 34.8937 26.564 35.008C26.4547 35.1223 26.3039 35.1794 26.1114 35.1794L23.1963 35.1794C22.9987 35.1794 22.8421 35.1223 22.7267 35.008C22.6112 34.8937 22.5535 34.7309 22.5535 34.5196L22.5535 33.9299C22.5535 33.7598 22.5484 33.5978 22.5384 33.4441C22.5283 33.2904 22.48 33.074 22.3935 32.795L17.126 15.0098C17.0265 14.6818 16.9282 14.4607 16.8311 14.3465C16.7341 14.2324 16.5916 14.1488 16.4038 14.0958L15.6579 13.8929C15.4526 13.829 15.3104 13.7563 15.2313 13.6749C15.1522 13.5935 15.1127 13.4914 15.1127 13.3686C15.1127 13.1939 15.1767 13.0589 15.3048 12.9636C15.4329 12.8683 15.6203 12.8206 15.867 12.8206L22.3793 12.8206C22.6363 12.8206 22.8262 12.8683 22.949 12.9636C23.0718 13.0589 23.1332 13.1939 23.1332 13.3686C23.1332 13.505 23.0866 13.6185 22.9935 13.7092C22.9005 13.7999 22.7518 13.8709 22.5475 13.9223L21.339 14.1047C21.0969 14.1556 20.9505 14.2574 20.8998 14.41C20.849 14.5627 20.8821 14.8489 20.9988 15.2686L26.221 33.0376L25.1664 33.8681L30.5253 15.7904C30.672 15.2956 30.6924 14.9188 30.5865 14.6598C30.4807 14.4009 30.18 14.2093 29.6846 14.085L28.642 13.9009C28.4439 13.8486 28.3038 13.7793 28.2218 13.6927C28.1398 13.6062 28.0988 13.4984 28.0988 13.3691Z" fill="#e8a87c" fill-rule="nonzero" opacity="1" stroke="none"/>
</g>
<g opacity="1">
<path d="M29.1687 17.0693L30.4705 17.5152L25.5865 32.7299C25.517 32.9314 25.4615 33.1226 25.4199 33.3035C25.3784 33.4844 25.3577 33.6932 25.3577 33.9299L25.3577 34.5196C25.3577 34.7309 25.3017 34.8937 25.1896 35.008C25.0776 35.1223 24.9253 35.1794 24.7328 35.1794L21.9764 35.1794C21.769 35.1794 21.6076 35.1223 21.4922 35.008C21.3768 34.8937 21.3191 34.7309 21.3191 34.5196L21.3191 33.9299C21.3191 33.7481 21.3022 33.5902 21.2684 33.4563C21.2345 33.3224 21.1763 33.1198 21.0938 32.8484L15.5994 15.0093C15.5159 14.7378 15.4129 14.5406 15.2902 14.4177C15.1676 14.2947 15.0007 14.1989 14.7894 14.1302L14.0356 13.9271C13.8291 13.8615 13.6875 13.7802 13.6107 13.6831C13.5339 13.5861 13.4956 13.4732 13.4956 13.3444C13.4956 13.18 13.5571 13.0516 13.6801 12.9592C13.8031 12.8668 13.9936 12.8206 14.2517 12.8206L20.9101 12.8206C21.1672 12.8206 21.3571 12.8683 21.4798 12.9636C21.6026 13.0589 21.664 13.1918 21.664 13.3621C21.664 13.6388 21.4839 13.8173 21.1237 13.8979L19.8706 14.086C19.6129 14.1366 19.4626 14.2496 19.4198 14.4249C19.3769 14.6002 19.4119 14.8791 19.5247 15.2616L24.9467 33.0683L23.7097 34.018L29.1687 17.0693ZM39.2104 13.3691C39.2104 13.1944 39.2745 13.0593 39.4027 12.9638C39.5309 12.8683 39.7186 12.8206 39.9658 12.8206L44.8607 12.8206C45.1302 12.8206 45.3235 12.8698 45.4406 12.9682C45.5576 13.0666 45.6161 13.1972 45.6161 13.3601C45.6161 13.4875 45.5776 13.5921 45.5006 13.6737C45.4235 13.7553 45.2678 13.8388 45.0334 13.9243L44.3764 14.1392C44.0708 14.2588 43.8155 14.4458 43.6104 14.7001C43.4054 14.9545 43.2242 15.355 43.0668 15.9017L38.068 32.7299C37.9965 32.9941 37.9405 33.2088 37.9001 33.374C37.8596 33.5392 37.8394 33.7245 37.8394 33.9299L37.8394 34.5196C37.8394 34.7309 37.7848 34.8937 37.6756 35.008C37.5664 35.1223 37.4156 35.1794 37.2231 35.1794L34.3079 35.1794C34.1103 35.1794 33.9538 35.1223 33.8383 35.008C33.7229 34.8937 33.6651 34.7309 33.6651 34.5196L33.6651 33.9299C33.6651 33.7598 33.6601 33.5978 33.65 33.4441C33.64 33.2904 33.5917 33.074 33.5052 32.795L28.2376 15.0098C28.1381 14.6818 28.0399 14.4607 27.9428 14.3465C27.8457 14.2324 27.7033 14.1488 27.5155 14.0958L26.7696 13.8929C26.5643 13.829 26.4221 13.7563 26.343 13.6749C26.2639 13.5935 26.2243 13.4914 26.2243 13.3686C26.2243 13.1939 26.2884 13.0589 26.4165 12.9636C26.5446 12.8683 26.732 12.8206 26.9787 12.8206L33.4909 12.8206C33.748 12.8206 33.9379 12.8683 34.0606 12.9636C34.1834 13.0589 34.2448 13.1939 34.2448 13.3686C34.2448 13.505 34.1983 13.6185 34.1052 13.7092C34.0121 13.7999 33.8634 13.8709 33.6591 13.9223L32.4506 14.1047C32.2086 14.1556 32.0622 14.2574 32.0114 14.41C31.9607 14.5627 31.9937 14.8489 32.1105 15.2686L37.3326 33.0376L36.2781 33.8681L41.6369 15.7904C41.7837 15.2956 41.8041 14.9188 41.6982 14.6598C41.5923 14.4009 41.2917 14.2093 40.7962 14.085L39.7537 13.9009C39.5555 13.8486 39.4154 13.7793 39.3334 13.6927C39.2514 13.6062 39.2104 13.4984 39.2104 13.3691Z" fill="#f7b485" fill-rule="nonzero" opacity="1" stroke="none"/>
</g>
</g>
</svg>
